<?xml version="1.0" encoding="UTF-8" standalone="no"?>
<!-- Created with Inkscape (http://www.inkscape.org/) -->

<svg
   version="1.1"
   id="svg2"
   width="793.70667"
   height="793.70667"
   viewBox="0 0 793.70667 793.70667"
   sodipodi:docname="Floop Logo-08.eps"
   xmlns:inkscape="http://www.inkscape.org/namespaces/inkscape"
   xmlns:sodipodi="http://sodipodi.sourceforge.net/DTD/sodipodi-0.dtd"
   xmlns="http://www.w3.org/2000/svg"
   xmlns:svg="http://www.w3.org/2000/svg">
  <defs
     id="defs6" />
  <sodipodi:namedview
     id="namedview4"
     pagecolor="#ffffff"
     bordercolor="#000000"
     borderopacity="0.25"
     inkscape:showpageshadow="2"
     inkscape:pageopacity="0.0"
     inkscape:pagecheckerboard="0"
     inkscape:deskcolor="#d1d1d1" />
  <g
     id="g8"
     inkscape:groupmode="layer"
     inkscape:label="ink_ext_XXXXXX"
     transform="matrix(1.3333333,0,0,-1.3333333,0,793.70667)">
    <g
       id="g10"
       transform="scale(0.1)">
      <path
         d="M 6037.8,-85.0391 H -85.0391 V 6037.8 H 6037.8 V -85.0391"
         style="fill:#5fc8b2;fill-opacity:1;fill-rule:nonzero;stroke:none"
         id="path12" />
      <path
         d="m 2289.67,4222.86 c -74.11,0 -144.03,-20.07 -207.76,-59.7 -63.13,-39.24 -116.4,-96.66 -158.45,-170.7 -42.18,-74.1 -63.59,-168.84 -63.59,-281.53 0,-176.28 45.24,-306.56 134.49,-387.19 78.94,-71.37 167.14,-107.54 262.07,-107.54 12.15,0 24.42,0.59 36.83,1.77 107.33,10.25 206.11,61.43 293.53,152.19 88.01,91.4 132.67,217.11 132.67,373.61 0,103.35 -21.54,191.98 -63.98,263.41 -42.37,71.17 -96.04,125.49 -159.37,161.46 -63.46,35.97 -132.93,54.22 -206.44,54.22 z m 1346.25,0 c -73.45,0 -142.91,-18.25 -206.44,-54.22 -63.4,-36.01 -117,-90.33 -159.37,-161.43 -42.44,-71.46 -63.98,-160.09 -63.98,-263.44 0,-156.5 44.65,-282.21 132.66,-373.58 87.43,-90.79 186.21,-141.97 293.54,-152.22 12.41,-1.18 24.68,-1.77 36.83,-1.77 94.93,0 183.13,36.17 262.07,107.54 89.25,80.63 134.49,210.91 134.49,387.19 0,112.69 -21.41,207.43 -63.59,281.56 -42.18,74.07 -95.45,131.49 -158.39,170.67 -63.79,39.63 -133.71,59.7 -207.82,59.7 z m 39.96,-1487.77 c -130.77,0 -252.02,28.53 -360.33,84.88 -109.29,56.86 -204.88,133.51 -284.2,227.79 -10.91,12.93 -20.9,26.44 -30.95,39.89 l -37.61,50.21 -37.6,-50.21 c -10.06,-13.45 -20.05,-26.96 -30.95,-39.89 -79.33,-94.28 -174.91,-170.93 -284.2,-227.79 -108.32,-56.35 -229.56,-84.88 -360.33,-84.88 -121.57,0 -231.71,25.33 -327.36,75.41 -96.56,50.53 -180.13,119.15 -248.49,203.9 -68.82,85 -121.89,183.59 -157.74,292.95 -36.17,109.75 -54.45,223.42 -54.45,337.87 0,198.74 42.44,372.31 126.2,515.94 84.16,144.36 189.93,259.37 314.43,341.86 123.99,82.16 261.16,131.39 407.6,146.38 29.25,2.97 58.44,4.5 86.77,4.5 112.63,0 219.5,-23.99 317.63,-71.33 81.16,-39.14 155.13,-96.79 219.9,-171.32 l 28.59,-32.97 28.6,32.97 c 64.77,74.53 138.74,132.18 219.83,171.32 98.19,47.34 205.07,71.33 317.7,71.33 28.33,0 57.52,-1.53 86.76,-4.5 146.45,-14.99 283.62,-64.22 407.6,-146.38 124.51,-82.56 230.28,-197.57 314.37,-341.86 83.83,-143.63 126.27,-317.2 126.27,-515.94 0,-114.26 -18.28,-227.93 -54.45,-337.87 -35.85,-109.23 -88.93,-207.82 -157.74,-292.95 -68.36,-84.75 -151.93,-153.37 -248.49,-203.9 -95.65,-50.08 -205.79,-75.41 -327.36,-75.41"
         style="fill:#ffffff;fill-opacity:1;fill-rule:nonzero;stroke:none"
         id="path14" />
      <path
         d="m 3256.4,1298.86 c -59.35,0 -119.87,2.75 -180,7.97 -204.68,18.08 -404.6,56.93 -594.26,115.56 -189.93,58.69 -366.99,135.08 -526.23,227.14 -158.79,91.8 -291.58,192.73 -394.67,299.94 -29.97,29.38 -55.37,58.95 -76.72,89.12 -20.04,28.07 -34.93,58.04 -44.33,89.31 -14.89,49.49 -11.23,95.91 11.29,141.68 20.96,42.7 61.44,70.05 123.86,83.64 15.28,3.39 30.36,5.09 44.92,5.09 12.14,0 24.22,-1.18 35.97,-3.53 20.24,-4.05 36.17,-14.04 50.01,-31.4 86.71,-103.42 212.52,-196.2 374.83,-277.02 158.65,-79.07 333.36,-143.77 519.17,-192.21 185.36,-48.19 372.8,-80.31 557.25,-95.46 63.33,-5.15 124.7,-7.83 182.35,-7.83 113.01,0 216.76,10.12 308.36,30.1 124.37,27.16 217.8,57.97 285.64,94.27 70.12,37.55 120.65,76.78 154.67,120.01 34.01,43.28 55.75,87.61 64.7,131.62 6.85,33.75 14.75,66.07 23.83,96.89 7.18,24.74 18.41,45.57 34.41,63.85 7.31,8.36 28.33,24.35 86.24,37.02 16.46,3.59 32.26,5.42 46.95,5.42 30.88,0 57.45,-7.84 81.35,-24.03 37.34,-25.4 61.3,-57.13 73.31,-97.02 31.93,-106.09 29.45,-201.87 -7.57,-292.75 -38.59,-94.41 -98.59,-180.59 -178.5,-256.26 -81.41,-77.11 -180.39,-143.44 -294.32,-197.11 -115.63,-54.32 -231.71,-94.47 -344.99,-119.15 -136.32,-29.78 -276.82,-44.86 -417.52,-44.86"
         style="fill:#ffffff;fill-opacity:1;fill-rule:nonzero;stroke:none"
         id="path16" />
    </g>
  </g>
</svg>
