<svg width="413" height="448" viewBox="0 0 413 448" fill="none" xmlns="http://www.w3.org/2000/svg">
<path d="M114.788 57.6587C104.908 57.6587 95.5853 60.3346 87.088 65.6186C78.6707 70.8506 71.5667 78.5067 65.9613 88.3787C60.3373 98.2587 57.4827 110.891 57.4827 125.916C57.4827 149.42 63.5147 166.791 75.4147 177.541C85.94 187.057 97.7 191.88 110.357 191.88C111.977 191.88 113.613 191.801 115.267 191.644C129.579 190.277 142.749 183.453 154.405 171.352C166.14 159.165 172.095 142.404 172.095 121.537C172.095 107.757 169.223 95.94 163.564 86.416C157.915 76.9267 150.759 69.684 142.315 64.888C133.853 60.092 124.591 57.6587 114.788 57.6587ZM294.289 57.6587C284.496 57.6587 275.235 60.092 266.764 64.888C258.311 69.6893 251.164 76.932 245.515 86.412C239.856 95.94 236.984 107.757 236.984 121.537C236.984 142.404 242.937 159.165 254.672 171.348C266.328 183.453 279.5 190.277 293.811 191.644C295.465 191.801 297.101 191.88 298.72 191.88C311.377 191.88 323.139 187.057 333.663 177.541C345.564 166.791 351.596 149.42 351.596 125.916C351.596 110.891 348.741 98.2587 343.117 88.3747C337.493 78.4987 330.391 70.8426 321.999 65.6186C313.493 60.3346 304.171 57.6587 294.289 57.6587ZM299.617 256.028C282.181 256.028 266.015 252.224 251.573 244.711C237.001 237.129 224.256 226.909 213.68 214.339C212.225 212.615 210.893 210.813 209.553 209.02L204.539 202.325L199.525 209.02C198.184 210.813 196.852 212.615 195.399 214.339C184.821 226.909 172.077 237.129 157.505 244.711C143.063 252.224 126.897 256.028 109.461 256.028C93.252 256.028 78.5667 252.651 65.8133 245.973C52.9387 239.236 41.796 230.087 32.6813 218.787C23.5053 207.453 16.428 194.308 11.6493 179.727C6.82667 165.093 4.38934 149.937 4.38934 134.677C4.38934 108.179 10.048 85.036 21.216 65.8853C32.4373 46.6373 46.54 31.3027 63.14 20.304C79.672 9.34933 97.9613 2.78534 117.487 0.786678C121.387 0.390678 125.279 0.186678 129.056 0.186678C144.073 0.186678 158.323 3.38536 171.407 9.69736C182.228 14.916 192.091 22.6027 200.727 32.54L204.539 36.936L208.352 32.54C216.988 22.6027 226.851 14.916 237.663 9.69736C250.755 3.38536 265.005 0.186678 280.021 0.186678C283.8 0.186678 287.691 0.390678 291.591 0.786678C311.117 2.78534 329.407 9.34933 345.937 20.304C362.539 31.312 376.641 46.6466 387.853 65.8853C399.031 85.036 404.689 108.179 404.689 134.677C404.689 149.912 402.252 165.068 397.429 179.727C392.649 194.291 385.572 207.436 376.397 218.787C367.283 230.087 356.14 239.236 343.265 245.973C330.512 252.651 315.827 256.028 299.617 256.028Z" fill="#5FC8B2"/>
<path d="M243.687 447.525C235.773 447.525 227.704 447.159 219.687 446.463C192.396 444.052 165.74 438.872 140.452 431.055C115.128 423.229 91.52 413.044 70.288 400.769C49.116 388.529 31.4107 375.072 17.664 360.777C13.6693 356.86 10.2827 352.917 7.43599 348.895C4.76399 345.152 2.77865 341.156 1.52532 336.987C-0.460017 330.388 0.0279884 324.199 3.03066 318.096C5.82532 312.403 11.2227 308.756 19.5453 306.944C21.5813 306.492 23.5933 306.265 25.5347 306.265C27.1533 306.265 28.764 306.423 30.3307 306.736C33.0293 307.276 35.1533 308.608 36.9987 310.923C48.56 324.712 65.3347 337.083 86.976 347.859C108.129 358.401 131.424 367.028 156.199 373.487C180.913 379.912 205.905 384.195 230.499 386.215C238.943 386.901 247.125 387.259 254.812 387.259C269.88 387.259 283.713 385.909 295.927 383.245C312.509 379.624 324.967 375.516 334.012 370.676C343.361 365.669 350.099 360.439 354.635 354.675C359.169 348.904 362.068 342.993 363.261 337.125C364.175 332.625 365.228 328.316 366.439 324.207C367.396 320.908 368.893 318.131 371.027 315.693C372.001 314.579 374.804 312.447 382.525 310.757C384.719 310.279 386.825 310.035 388.784 310.035C392.903 310.035 396.445 311.08 399.631 313.239C404.611 316.625 407.805 320.856 409.407 326.175C413.664 340.32 413.333 353.091 408.397 365.208C403.252 377.796 395.252 389.287 384.597 399.376C373.743 409.657 360.545 418.501 345.355 425.657C329.937 432.9 314.46 438.253 299.356 441.544C281.18 445.515 262.447 447.525 243.687 447.525Z" fill="#5FC8B2"/>
</svg>
