<svg width="795" height="794" viewBox="0 0 795 794" fill="none" xmlns="http://www.w3.org/2000/svg">
<path d="M805.54 805.045H-10.8386V-11.3333H805.54V805.045Z" fill="#5FC8B2"/>
<path d="M305.789 230.659C295.908 230.659 286.585 233.335 278.088 238.619C269.671 243.851 262.568 251.507 256.961 261.379C251.337 271.259 248.483 283.891 248.483 298.916C248.483 322.42 254.515 339.791 266.415 350.541C276.94 360.057 288.7 364.88 301.357 364.88C302.977 364.88 304.613 364.801 306.268 364.644C320.579 363.277 333.749 356.453 345.405 344.352C357.14 332.165 363.095 315.404 363.095 294.537C363.095 280.757 360.223 268.94 354.564 259.416C348.915 249.927 341.759 242.684 333.315 237.888C324.853 233.092 315.591 230.659 305.789 230.659ZM485.289 230.659C475.496 230.659 466.235 233.092 457.764 237.888C449.311 242.689 442.164 249.932 436.515 259.412C430.856 268.94 427.984 280.757 427.984 294.537C427.984 315.404 433.937 332.165 445.672 344.348C457.329 356.453 470.5 363.277 484.811 364.644C486.465 364.801 488.101 364.88 489.721 364.88C502.379 364.88 514.139 360.057 524.664 350.541C536.564 339.791 542.596 322.42 542.596 298.916C542.596 283.891 539.741 271.259 534.117 261.375C528.493 251.499 521.391 243.843 512.999 238.619C504.493 233.335 495.171 230.659 485.289 230.659ZM490.617 429.028C473.181 429.028 457.015 425.224 442.573 417.711C428.001 410.129 415.256 399.909 404.68 387.339C403.225 385.615 401.893 383.813 400.553 382.02L395.539 375.325L390.525 382.02C389.184 383.813 387.852 385.615 386.399 387.339C375.821 399.909 363.077 410.129 348.505 417.711C334.063 425.224 317.897 429.028 300.461 429.028C284.252 429.028 269.567 425.651 256.813 418.973C243.939 412.236 232.796 403.087 223.681 391.787C214.505 380.453 207.429 367.308 202.649 352.727C197.827 338.093 195.389 322.937 195.389 307.677C195.389 281.179 201.048 258.036 212.216 238.885C223.437 219.637 237.54 204.303 254.14 193.304C270.672 182.349 288.961 175.785 308.487 173.787C312.387 173.391 316.279 173.187 320.056 173.187C335.073 173.187 349.323 176.385 362.407 182.697C373.228 187.916 383.091 195.603 391.727 205.54L395.539 209.936L399.352 205.54C407.988 195.603 417.851 187.916 428.663 182.697C441.755 176.385 456.005 173.187 471.023 173.187C474.8 173.187 478.692 173.391 482.591 173.787C502.117 175.785 520.407 182.349 536.937 193.304C553.539 204.312 567.641 219.647 578.853 238.885C590.031 258.036 595.689 281.179 595.689 307.677C595.689 322.912 593.252 338.068 588.429 352.727C583.649 367.291 576.572 380.436 567.397 391.787C558.283 403.087 547.14 412.236 534.265 418.973C521.512 425.651 506.827 429.028 490.617 429.028Z" fill="white"/>
<path d="M434.687 620.525C426.773 620.525 418.704 620.159 410.687 619.463C383.396 617.052 356.74 611.872 331.452 604.055C306.128 596.229 282.52 586.044 261.288 573.769C240.116 561.529 222.411 548.072 208.665 533.777C204.669 529.86 201.283 525.917 198.436 521.895C195.764 518.152 193.779 514.156 192.525 509.987C190.54 503.388 191.028 497.199 194.031 491.096C196.825 485.403 202.223 481.756 210.545 479.944C212.583 479.492 214.593 479.265 216.535 479.265C218.153 479.265 219.764 479.423 221.331 479.736C224.029 480.276 226.153 481.608 227.999 483.923C239.56 497.712 256.335 510.083 277.976 520.859C299.129 531.401 322.424 540.028 347.199 546.487C371.913 552.912 396.905 557.195 421.499 559.215C429.943 559.901 438.125 560.259 445.812 560.259C460.88 560.259 474.713 558.909 486.927 556.245C503.509 552.624 515.967 548.516 525.012 543.676C534.361 538.669 541.099 533.439 545.635 527.675C550.169 521.904 553.068 515.993 554.261 510.125C555.175 505.625 556.228 501.316 557.439 497.207C558.396 493.908 559.893 491.131 562.027 488.693C563.001 487.579 565.804 485.447 573.525 483.757C575.72 483.279 577.827 483.035 579.785 483.035C583.903 483.035 587.445 484.08 590.632 486.239C595.611 489.625 598.805 493.856 600.407 499.175C604.664 513.32 604.333 526.091 599.397 538.208C594.252 550.796 586.252 562.287 575.597 572.376C564.743 582.657 551.545 591.501 536.355 598.657C520.937 605.9 505.46 611.253 490.356 614.544C472.18 618.515 453.447 620.525 434.687 620.525Z" fill="white"/>
</svg>
