<svg width="882" height="444" viewBox="0 0 882 444" fill="none" xmlns="http://www.w3.org/2000/svg">
<path d="M386.375 83.9693C377.255 83.9693 368.651 86.44 360.809 91.3174C353.04 96.1454 346.484 103.212 341.309 112.323C336.119 121.443 333.484 133.1 333.484 146.968C333.484 168.66 339.052 184.693 350.035 194.616C359.748 203.397 370.603 207.848 382.285 207.848C383.779 207.848 385.289 207.776 386.816 207.632C400.025 206.371 412.181 200.071 422.939 188.903C433.769 177.655 439.265 162.185 439.265 142.927C439.265 130.208 436.613 119.301 431.391 110.512C426.177 101.753 419.572 95.0693 411.779 90.6427C403.969 86.216 395.421 83.9693 386.375 83.9693ZM552.044 83.9693C543.005 83.9693 534.456 86.216 526.639 90.6427C518.837 95.0733 512.241 101.757 507.027 110.508C501.805 119.301 499.153 130.208 499.153 142.927C499.153 162.185 504.649 177.655 515.48 188.899C526.237 200.071 538.393 206.371 551.603 207.632C553.128 207.776 554.639 207.848 556.133 207.848C567.816 207.848 578.671 203.397 588.384 194.616C599.367 184.693 604.935 168.66 604.935 146.968C604.935 133.1 602.299 121.443 597.109 112.319C591.919 103.204 585.363 96.1374 577.617 91.3174C569.768 86.44 561.163 83.9693 552.044 83.9693ZM556.961 267.053C540.868 267.053 525.948 263.543 512.619 256.609C499.169 249.611 487.407 240.179 477.645 228.577C476.304 226.987 475.075 225.323 473.837 223.668L469.209 217.489L464.581 223.668C463.344 225.323 462.115 226.987 460.773 228.577C451.011 240.179 439.249 249.611 425.799 256.609C412.471 263.543 397.551 267.053 381.457 267.053C366.497 267.053 352.943 263.936 341.173 257.775C329.289 251.556 319.005 243.112 310.593 232.683C302.125 222.221 295.593 210.089 291.183 196.632C286.732 183.127 284.481 169.139 284.481 155.055C284.481 130.597 289.704 109.237 300.012 91.5627C310.369 73.7987 323.384 59.6454 338.707 49.4947C353.964 39.3827 370.844 33.3254 388.865 31.4814C392.464 31.116 396.056 30.9267 399.543 30.9267C413.403 30.9267 426.555 33.8787 438.631 39.704C448.617 44.5213 457.72 51.6147 465.691 60.7867L469.209 64.844L472.728 60.7867C480.699 51.6147 489.801 44.5213 499.78 39.704C511.864 33.8787 525.016 30.9267 538.876 30.9267C542.363 30.9267 545.953 31.116 549.553 31.4814C567.575 33.3254 584.455 39.3827 599.712 49.4947C615.033 59.6534 628.049 73.8067 638.397 91.5627C648.715 109.237 653.936 130.597 653.936 155.055C653.936 169.115 651.687 183.103 647.236 196.632C642.825 210.073 636.293 222.205 627.824 232.683C619.412 243.112 609.128 251.556 597.245 257.775C585.475 263.936 571.921 267.053 556.961 267.053Z" fill="#5B45A5"/>
<path d="M222.199 260.08C214.012 260.08 207.641 257.541 202.708 252.319C196.843 246.132 192.151 238.435 188.76 229.445C185.168 219.916 182.621 209.817 181.192 199.404C179.713 188.715 178.967 179.431 178.967 171.801C178.967 165.728 179.159 157.167 179.536 146.136C179.907 135.373 180.855 123.495 182.372 110.825C183.883 98.1506 185.884 85.1467 188.335 72.1707C190.712 59.5533 194.031 48.02 198.2 37.892C202.185 28.1707 207.039 20.164 212.615 14.0906C217.225 9.05731 222.288 6.71467 228.555 6.71467C236.895 6.71467 243.064 9.22133 247.419 14.376C252.152 20 254.457 26.536 254.457 34.3453C254.457 47.248 253.332 60.5293 251.115 73.8107C248.729 88.14 247.524 102.449 247.524 116.36C247.524 133.152 248.416 149.904 250.175 166.161C251.863 181.74 252.721 197.628 252.721 213.392C252.721 219.417 252.264 225.676 251.364 232C250.56 237.624 248.961 242.709 246.616 247.096C244.479 251.081 241.579 254.191 237.745 256.601C234.075 258.915 228.852 260.08 222.199 260.08ZM56.7387 262.972C51.1707 262.972 47.0654 261.405 43.8267 258.031C39.5854 253.636 36.0254 248.157 33.2374 241.721C30.2494 234.868 28.024 227.589 26.6334 220.06C25.1307 211.961 23.9987 205.084 23.2427 199.436C21.8294 190.485 19.652 183.987 16.5667 179.343C13.8188 175.216 10.7255 171.661 7.36724 168.773C5.0615 166.792 3.0927 164.832 1.52603 162.948C1.5183 162.94 0.803101 161.932 0.803101 158.517C0.803101 154.6 2.16043 151.093 4.94843 147.799C11.5771 139.64 14.5094 129.879 13.7787 118.639C13.2162 110.025 12.9266 101.875 12.9266 94.4107C12.9266 79.872 14.4855 66.3627 17.5547 54.2507C20.4707 42.7293 25.1227 32.9467 31.3734 25.1733C37.488 17.5693 45.788 11.4946 56.056 7.11597C66.6054 2.6333 80.0467 0.359978 96.0107 0.359978C101.707 0.359978 108.295 1.32798 115.599 3.23198C122.821 5.12798 129.619 7.91196 135.781 11.508C141.687 14.9506 146.756 19.264 150.845 24.3266C154.3 28.62 155.988 33.228 155.988 38.3906C155.988 44.8466 153.979 50.1253 149.849 54.536C145.824 58.8267 141.012 60.8266 134.704 60.8266C129.9 60.8266 125.095 60.092 120.427 58.6453C113.968 56.6453 107.307 55.628 100.623 55.628C97.6014 55.628 94.2427 55.8373 90.3707 56.2626C85.888 56.7653 81.7094 57.9146 77.9174 59.6773C74.012 61.5093 70.6054 63.88 67.7454 66.744C63.8894 70.596 61.84 75.7747 61.84 81.704C61.84 88.352 61.9374 94.888 62.1294 101.332C62.3307 107.776 62.62 114.32 63.0134 120.952L63.528 129.729H90.812C96.22 129.729 102.399 130.103 109.155 130.835C115.535 131.529 121.6 132.912 127.168 134.944C132.213 136.776 136.352 139.419 139.815 143.031C142.529 145.867 143.856 149.804 143.856 155.055C143.856 162.261 141.284 165.475 139.348 167.263C135.379 170.915 130.341 173.727 124.38 175.615C117.824 177.687 110.947 178.904 103.949 179.225C96.196 179.616 89.5267 179.804 83.8787 179.804H72.96L74.6627 190.591C75.812 197.869 76.8654 204.852 77.8294 211.552C78.72 217.867 79.1707 224.52 79.1707 231.293C79.1707 240.468 77.3067 248.607 73.6267 255.476C71.908 258.699 68.292 262.972 56.7387 262.972ZM796.74 62.6227C789.935 62.6227 782.712 65.716 774.669 72.0747C767.285 78.1613 760.537 85.8493 754.471 95.0573C748.003 104.879 744.396 113.777 743.464 122.265L742.323 132.615H781.033C796.241 132.615 807.321 127.512 813.949 117.445C819.944 108.327 822.483 98.8013 821.503 89.136C820.425 78.768 815.621 70.6653 807.603 65.696C804.324 63.6586 800.669 62.6227 796.74 62.6227ZM728.48 287.807C723.088 287.807 718.903 285.879 715.287 281.749C710.66 276.479 706.683 269.4 703.436 260.675C699.989 251.443 697.225 240.927 695.217 229.405C693.152 217.619 691.537 205.8 690.396 194.271C689.28 182.805 688.613 172.075 688.428 162.381C688.227 152.447 688.139 144.613 688.139 138.885C688.139 132.14 688.428 122.567 688.999 110.443C689.545 98.6973 691.128 86.8907 693.683 75.3533C696.157 64.2653 699.853 54.628 704.681 46.7067C708.385 40.612 713.053 37.896 719.811 37.896C726.005 37.896 732.376 39.5107 738.74 42.6893L743.528 45.0826L748.012 42.1546C757.837 35.7306 768.209 29.3 778.84 23.0333C788.248 17.4933 798.411 14.7973 809.908 14.7973C819.992 14.7973 829.023 17.6573 837.531 23.5347C846.505 29.7573 854.339 37.772 860.799 47.3573C867.387 57.1586 872.529 67.9053 876.088 79.2893C879.639 90.6787 881.447 101.4 881.447 111.159C881.447 130.863 878.024 146.417 871.275 157.384C864.447 168.468 855.777 176.495 844.777 181.917C833.393 187.529 820.04 191.008 805.088 192.253C795.069 193.089 784.761 193.507 774.46 193.507C768.564 193.507 762.617 193.371 756.624 193.097L745.673 192.599L746.935 203.485C748.1 213.617 749.587 223.901 751.345 234.032C752.976 243.489 753.804 253.259 753.804 263.053C753.804 270.492 751.515 276.333 746.815 280.905C742.033 285.549 736.032 287.807 728.48 287.807Z" fill="#5B45A5"/>
<path d="M505.34 443.795C498.036 443.795 490.589 443.457 483.189 442.815C458.001 440.589 433.4 435.809 410.06 428.593C386.688 421.371 364.899 411.971 345.303 400.643C325.763 389.345 309.421 376.924 296.735 363.732C293.047 360.116 289.921 356.477 287.295 352.765C284.828 349.311 282.996 345.623 281.839 341.773C280.007 335.684 280.457 329.972 283.228 324.339C285.808 319.085 290.789 315.719 298.469 314.047C300.349 313.629 302.205 313.42 303.997 313.42C305.492 313.42 306.979 313.565 308.424 313.855C310.915 314.352 312.876 315.581 314.579 317.719C325.248 330.445 340.731 341.863 360.704 351.809C380.228 361.539 401.728 369.501 424.595 375.463C447.404 381.392 470.471 385.344 493.168 387.208C500.961 387.843 508.513 388.173 515.608 388.173C529.516 388.173 542.283 386.927 553.555 384.469C568.86 381.127 580.357 377.335 588.705 372.867C597.335 368.248 603.552 363.419 607.739 358.1C611.924 352.773 614.6 347.317 615.7 341.903C616.544 337.749 617.516 333.772 618.633 329.98C619.517 326.935 620.899 324.372 622.868 322.121C623.767 321.093 626.355 319.125 633.481 317.567C635.505 317.124 637.449 316.9 639.257 316.9C643.057 316.9 646.328 317.864 649.268 319.856C653.864 322.981 656.813 326.887 658.291 331.795C662.22 344.851 661.915 356.637 657.359 367.821C652.611 379.439 645.227 390.045 635.393 399.356C625.375 408.845 613.193 417.008 599.173 423.612C584.945 430.297 570.66 435.239 556.72 438.275C539.944 441.939 522.655 443.795 505.34 443.795Z" fill="#5B45A5"/>
</svg>
