<?xml version="1.0" encoding="UTF-8" standalone="no"?>
<!-- Created with Inkscape (http://www.inkscape.org/) -->

<svg
   version="1.1"
   id="svg2"
   width="1122.52"
   height="793.70667"
   viewBox="0 0 1122.52 793.70667"
   sodipodi:docname="Floop Logo-03.eps"
   xmlns:inkscape="http://www.inkscape.org/namespaces/inkscape"
   xmlns:sodipodi="http://sodipodi.sourceforge.net/DTD/sodipodi-0.dtd"
   xmlns="http://www.w3.org/2000/svg"
   xmlns:svg="http://www.w3.org/2000/svg">
  <defs
     id="defs6" />
  <sodipodi:namedview
     id="namedview4"
     pagecolor="#ffffff"
     bordercolor="#000000"
     borderopacity="0.25"
     inkscape:showpageshadow="2"
     inkscape:pageopacity="0.0"
     inkscape:pagecheckerboard="0"
     inkscape:deskcolor="#d1d1d1" />
  <g
     id="g8"
     inkscape:groupmode="layer"
     inkscape:label="ink_ext_XXXXXX"
     transform="matrix(1.3333333,0,0,-1.3333333,0,793.70667)">
    <g
       id="g10"
       transform="scale(0.1)">
      <path
         d="m 3779.06,4003.03 c -68.39,0 -132.93,-18.53 -191.74,-55.11 -58.27,-36.21 -107.44,-89.21 -146.25,-157.54 -38.93,-68.4 -58.69,-155.83 -58.69,-259.84 0,-162.69 41.76,-282.94 124.13,-357.36 72.85,-65.86 154.26,-99.24 241.88,-99.24 11.21,0 22.53,0.54 33.98,1.62 99.07,9.46 190.24,56.71 270.92,140.47 81.23,84.36 122.45,200.38 122.45,344.82 0,95.39 -19.89,177.19 -59.06,243.11 -39.1,65.69 -88.63,115.82 -147.09,149.02 -58.57,33.2 -122.68,50.05 -190.53,50.05 z m 1242.52,0 c -67.79,0 -131.91,-16.85 -190.54,-50.05 -58.51,-33.23 -107.98,-83.36 -147.09,-148.99 -39.16,-65.95 -59.05,-147.75 -59.05,-243.14 0,-144.44 41.22,-260.46 122.45,-344.79 80.68,-83.79 171.85,-131.04 270.92,-140.5 11.45,-1.08 22.77,-1.62 33.98,-1.62 87.62,0 169.03,33.38 241.88,99.24 82.37,74.42 124.13,194.67 124.13,357.36 0,104.01 -19.76,191.44 -58.69,259.87 -38.93,68.36 -88.1,121.36 -146.19,157.51 -58.87,36.58 -123.41,55.11 -191.8,55.11 z m 36.88,-1373.13 c -120.7,0 -232.6,26.33 -332.57,78.33 -100.87,52.49 -189.09,123.23 -262.3,210.24 -10.06,11.93 -19.28,24.41 -28.56,36.82 l -34.71,46.34 -34.71,-46.34 c -9.28,-12.41 -18.5,-24.89 -28.56,-36.82 -73.22,-87.01 -161.43,-157.75 -262.3,-210.24 -99.97,-52 -211.87,-78.33 -332.57,-78.33 -112.2,0 -213.86,23.38 -302.13,69.59 -89.13,46.64 -166.25,109.97 -229.35,188.19 -63.51,78.46 -112.5,169.45 -145.58,270.38 -33.38,101.29 -50.26,206.2 -50.26,311.83 0,183.43 39.17,343.63 116.48,476.19 77.68,133.23 175.29,239.38 290.21,315.51 114.43,75.84 241.03,121.27 376.19,135.1 26.99,2.74 53.93,4.16 80.08,4.16 103.95,0 202.59,-22.14 293.16,-65.83 74.9,-36.13 143.17,-89.33 202.95,-158.12 l 26.39,-30.43 26.39,30.43 c 59.78,68.79 128.05,121.99 202.89,158.12 90.63,43.69 189.27,65.83 293.22,65.83 26.15,0 53.08,-1.42 80.08,-4.16 135.16,-13.83 261.76,-59.26 376.19,-135.1 114.91,-76.19 212.53,-182.34 290.14,-315.51 77.38,-132.56 116.54,-292.76 116.54,-476.19 0,-105.45 -16.87,-210.36 -50.25,-311.83 -33.08,-100.81 -82.07,-191.8 -145.58,-270.38 -63.1,-78.22 -140.23,-141.55 -229.35,-188.19 -88.28,-46.21 -189.93,-69.59 -302.13,-69.59"
         style="fill:#ffffff;fill-opacity:1;fill-rule:nonzero;stroke:none"
         id="path12" />
      <path
         d="m 2547.75,2682.2 c -61.41,0 -109.19,19.04 -146.19,58.21 -43.99,46.4 -79.18,104.13 -104.61,171.55 -26.93,71.47 -46.04,147.21 -56.76,225.31 -11.09,80.17 -16.7,149.8 -16.7,207.02 0,45.55 1.45,109.76 4.28,192.49 2.78,80.72 9.89,169.81 21.27,264.83 11.33,95.06 26.34,192.59 44.72,289.91 17.83,94.63 42.72,181.13 73.99,257.09 29.89,72.91 66.29,132.96 108.11,178.51 34.59,37.75 72.55,55.32 119.55,55.32 62.55,0 108.82,-18.8 141.48,-57.46 35.5,-42.18 52.79,-91.2 52.79,-149.77 0,-96.77 -8.44,-196.38 -25.07,-295.99 -17.89,-107.47 -26.93,-214.79 -26.93,-319.12 0,-125.94 6.69,-251.58 19.88,-373.51 12.66,-116.84 19.1,-236 19.1,-354.23 0,-45.19 -3.43,-92.13 -10.18,-139.56 -6.02,-42.18 -18.02,-80.32 -35.61,-113.22 -16.03,-29.89 -37.78,-53.21 -66.53,-71.29 -27.53,-17.35 -66.7,-26.09 -116.59,-26.09 z m -1240.96,-21.69 c -41.76,0 -72.55,11.75 -96.84,37.06 -31.81,32.96 -58.51,74.05 -79.42,122.32 -22.41,51.4 -39.1,105.99 -49.53,162.46 -11.27,60.74 -19.76,112.32 -25.43,154.68 -10.6,67.13 -26.93,115.87 -50.07,150.7 -20.609,30.95 -43.809,57.61 -68.996,79.27 -17.293,14.86 -32.059,29.56 -43.809,43.69 -0.058,0.06 -5.422,7.62 -5.422,33.23 0,29.38 10.184,55.68 31.094,80.39 49.711,61.19 71.703,134.4 66.223,218.7 -4.219,64.6 -6.387,125.73 -6.387,181.71 0,109.04 11.688,210.36 34.707,301.2 21.87,86.41 56.76,159.78 103.64,218.08 45.86,57.03 108.11,102.59 185.12,135.43 79.11,33.62 179.93,50.67 299.66,50.67 42.72,0 92.14,-7.26 146.91,-21.54 54.17,-14.22 105.15,-35.1 151.37,-62.07 44.29,-25.82 82.31,-58.17 112.98,-96.14 25.91,-32.2 38.57,-66.76 38.57,-105.48 0,-48.42 -15.07,-88.01 -46.04,-121.09 -30.19,-32.18 -66.28,-47.18 -113.59,-47.18 -36.03,0 -72.07,5.51 -107.08,16.36 -48.44,15 -98.4,22.63 -148.53,22.63 -22.66,0 -47.84,-1.57 -76.89,-4.76 -33.62,-3.77 -64.96,-12.39 -93.4,-25.61 -29.29,-13.74 -54.84,-31.52 -76.29,-53 -28.92,-28.89 -44.29,-67.73 -44.29,-112.2 0,-49.86 0.73,-98.88 2.17,-147.21 1.51,-48.33 3.68,-97.41 6.63,-147.15 l 3.86,-65.83 h 204.63 c 40.56,0 86.9,-2.8 137.57,-8.29 47.85,-5.21 93.34,-15.58 135.1,-30.82 37.84,-13.74 68.88,-33.56 94.85,-60.65 20.37,-21.27 30.31,-50.8 30.31,-90.18 0,-54.05 -19.28,-78.15 -33.81,-91.56 -29.76,-27.39 -67.55,-48.48 -112.26,-62.64 -49.17,-15.54 -100.75,-24.67 -153.23,-27.08 -58.15,-2.93 -108.17,-4.34 -150.53,-4.34 h -81.89 l 12.77,-80.9 c 8.62,-54.59 16.52,-106.96 23.75,-157.21 6.68,-47.36 10.06,-97.26 10.06,-148.06 0,-68.81 -13.98,-129.85 -41.58,-181.37 -12.89,-24.17 -40.01,-56.22 -126.66,-56.22 z M 6856.8,4163.13 c -51.04,0 -105.21,-23.2 -165.53,-70.89 -55.37,-45.65 -105.99,-103.31 -151.49,-172.37 -48.5,-73.66 -75.56,-140.4 -82.55,-204.06 l -8.56,-77.62 H 6739 c 114.07,0 197.16,38.27 246.87,113.77 44.96,68.39 64,139.83 56.65,212.32 -8.08,77.76 -44.11,138.53 -104.25,175.8 -24.58,15.28 -52,23.05 -81.47,23.05 z M 6344.85,2474.25 c -40.43,0 -71.83,14.46 -98.95,45.43 -34.7,39.53 -64.53,92.62 -88.88,158.06 -25.85,69.24 -46.58,148.11 -61.64,234.52 -15.49,88.4 -27.6,177.04 -36.15,263.51 -8.38,85.99 -13.38,166.47 -14.77,239.17 -1.5,74.51 -2.17,133.26 -2.17,176.22 0,50.59 2.17,122.39 6.45,213.32 4.1,88.09 15.97,176.64 35.13,263.17 18.56,83.16 46.28,155.44 82.49,214.85 27.78,45.71 62.79,66.08 113.47,66.08 46.46,0 94.24,-12.11 141.97,-35.95 l 35.91,-17.95 33.62,21.96 c 73.7,48.18 151.49,96.41 231.22,143.41 70.56,41.55 146.79,61.77 233.01,61.77 75.63,0 143.36,-21.45 207.17,-65.53 67.31,-46.67 126.06,-106.78 174.51,-178.67 49.41,-73.51 87.98,-154.11 114.67,-239.49 26.63,-85.42 40.19,-165.83 40.19,-239.02 0,-147.78 -25.67,-264.44 -76.29,-346.69 -51.21,-83.13 -116.23,-143.33 -198.73,-184 -85.38,-42.09 -185.53,-68.18 -297.67,-77.52 -75.14,-6.27 -152.45,-9.4 -229.7,-9.4 -44.23,0 -88.82,1.02 -133.78,3.07 l -82.13,3.74 9.46,-81.65 c 8.74,-75.99 19.89,-153.12 33.08,-229.1 12.24,-70.93 18.44,-144.2 18.44,-217.66 0,-55.79 -17.17,-99.6 -52.42,-133.89 -35.86,-34.83 -80.87,-51.76 -137.51,-51.76"
         style="fill:#ffffff;fill-opacity:1;fill-rule:nonzero;stroke:none"
         id="path14" />
      <path
         d="m 4671.3,1304.34 c -54.78,0 -110.63,2.53 -166.13,7.35 -188.91,16.69 -373.42,52.54 -548.47,106.66 -175.29,54.17 -338.71,124.67 -485.68,209.63 -146.55,84.73 -269.11,177.89 -364.26,276.83 -27.66,27.12 -51.1,54.41 -70.8,82.25 -18.5,25.91 -32.24,53.57 -40.92,82.44 -13.74,45.67 -10.36,88.51 10.43,130.76 19.34,39.4 56.7,64.65 114.3,77.19 14.11,3.13 28.02,4.7 41.46,4.7 11.21,0 22.36,-1.09 33.2,-3.26 18.68,-3.73 33.39,-12.95 46.16,-28.98 80.02,-95.45 196.14,-181.08 345.94,-255.68 146.43,-72.97 307.68,-132.69 479.18,-177.4 171.07,-44.47 344.07,-74.11 514.3,-88.09 58.45,-4.76 115.09,-7.24 168.3,-7.24 104.31,0 200.06,9.35 284.6,27.78 114.79,25.07 201.02,53.51 263.63,87.02 64.72,34.64 111.35,70.86 142.75,110.75 31.4,39.95 51.46,80.87 59.72,121.48 6.32,31.15 13.61,60.98 21.99,89.42 6.63,22.84 16.99,42.06 31.76,58.94 6.74,7.71 26.15,22.47 79.6,34.16 15.18,3.32 29.76,5 43.32,5 28.5,0 53.03,-7.23 75.08,-22.17 34.47,-23.44 56.59,-52.73 67.67,-89.54 29.47,-97.92 27.18,-186.32 -6.99,-270.2 -35.61,-87.13 -90.99,-166.68 -164.74,-236.51 -75.14,-71.17 -166.5,-132.39 -271.64,-181.92 -106.72,-50.14 -213.86,-87.2 -318.41,-109.97 -125.82,-27.48 -255.49,-41.4 -385.35,-41.4"
         style="fill:#ffffff;fill-opacity:1;fill-rule:nonzero;stroke:none"
         id="path16" />
    </g>
  </g>
</svg>
